# xmcd
#
# Track frame offsets:
#	150
#	20832
#	40409
#	56703
#	68615
#	88696
#	102212
#	119090
#	135212
#	151842
#	167302
#	184854
#	202533
#	218097
#	235296
#	248304
#	267869
#	279445
#	301090
#
# Disc length: 4238 seconds
#
# Revision: 0
# Processed by: cddbd v1.4PL0 Copyright (c) Steve Scherf et al.
# Submitted via: EasyCDDAExtractor 4.5.0.2
#
DISCID=f3108c13
DTITLE=Garth Brooks - The Hits
DYEAR=1900
DGENRE=
TTITLE0=Ain't Goin' Down (Til The Sun Comes Up)
TTITLE1=Friends In Low Places
TTITLE2=Burning Bridges
TTITLE3=Callin' Baton Rouge
TTITLE4=The River
TTITLE5=Much Too Young (To Feel This Damn Old)
TTITLE6=The Thunder Rolls
TTITLE7=American Honky-Tonk Bar Association
TTITLE8=If Tomorrow Never Comes
TTITLE9=Unanswered Prayers
TTITLE10=Standing Outside The Fire
TTITLE11=Rodeo
TTITLE12=What She's Doing Now
TTITLE13=We Shall Be Free
TTITLE14=Papa Loved Mama
TTITLE15=Sameless
TTITLE16=Two Of A Kind, Workin' On A Full House
TTITLE17=That Summer
TTITLE18=The Red Strokes
EXTD=
EXTT0=
EXTT1=
EXTT2=
EXTT3=
EXTT4=
EXTT5=
EXTT6=
EXTT7=
EXTT8=
EXTT9=
EXTT10=
EXTT11=
EXTT12=
EXTT13=
EXTT14=
EXTT15=
EXTT16=
EXTT17=
EXTT18=
PLAYORDER=
